<svg xmlns="http://www.w3.org/2000/svg" width="167" height="78.875" viewBox="0 0 167 78.875">
  <g id="Antu_application-x-php" transform="translate(-71.092 -28.334)">
    <g id="Group_238" data-name="Group 238" transform="translate(71.092 28.334)">
      <g id="Group_237" data-name="Group 237" transform="translate(0 0)">
        <path id="Path_157" data-name="Path 157" d="M5.585,73.208,18.4,10.581H48.045c12.816.8,19.215,6.962,19.215,17.786,0,18.553-15.22,29.325-28.831,28.6H24L20.782,73.214H5.562M27.2,45.382,31.217,22.2H41.629c5.627,0,9.616,2.311,9.616,6.962C50.426,42.3,44.033,44.61,36.821,45.382" transform="translate(-5.562 5.661)" fill="#989898" fill-rule="evenodd"/>
        <path id="Path_158" data-name="Path 158" d="M11.016,71.629l12.816-62.6h15.22l-3.2,16.219H50.276c12.816.8,17.624,6.962,16.015,14.7l-5.6,31.688H44.649l5.627-28.6c.8-3.856.8-6.19-4.831-6.19h-12L26.236,71.606H11.016" transform="translate(45.897 -9.025)" fill="#989898"/>
        <path id="Path_159" data-name="Path 159" d="M15.653,73.208,28.492,10.581H58.136c12.816.8,19.215,6.962,19.215,17.786,0,18.553-15.22,29.325-28.854,28.6H34.072l-3.2,16.242m6.417-27.832L41.3,22.2H51.713c5.6,0,9.593,2.311,9.593,6.962-.8,13.135-7.189,15.446-14.424,16.219" transform="translate(89.649 5.661)" fill="#989898" fill-rule="evenodd"/>
      </g>
    </g>
  </g>
</svg>
