<svg xmlns="http://www.w3.org/2000/svg" xmlns:xlink="http://www.w3.org/1999/xlink" width="96.098" height="119" viewBox="0 0 96.098 119">
  <defs>
    <clipPath id="clip-path">
      <path id="Path_173" data-name="Path 173" d="M100.78,55.715,68.747,87.759,100.78,119.8h-36.6L50.439,106.067,32.132,87.759,64.176,55.715ZM64.176.8,4.682,60.3,22.989,78.606,100.78.8h-36.6Z" transform="translate(-4.682 -0.804)"/>
    </clipPath>
    <linearGradient id="linear-gradient" x1="-89.486" y1="-632.996" x2="-87.478" y2="-635.974" gradientUnits="objectBoundingBox">
      <stop offset="0" stop-color="#1a237e" stop-opacity="0.4"/>
      <stop offset="1" stop-color="#1a237e" stop-opacity="0"/>
    </linearGradient>
    <radialGradient id="radial-gradient" cx="-27.315" cy="-8.995" r="0.047" gradientTransform="translate(-57.238) scale(1.238 1)" gradientUnits="objectBoundingBox">
      <stop offset="0" stop-color="#fff" stop-opacity="0.102"/>
      <stop offset="1" stop-color="#fff" stop-opacity="0"/>
    </radialGradient>
  </defs>
  <g id="flutter-seeklogo.com" transform="translate(-4.121 -8.966)" opacity="0.3">
    <g id="Group_252" data-name="Group 252" transform="translate(4.121 8.966)">
      <g id="Group_243" data-name="Group 243" transform="translate(0 0)">
        <g id="Group_242" data-name="Group 242" clip-path="url(#clip-path)">
          <path id="Path_172" data-name="Path 172" d="M32.283,69.762,82.624,19.41H46.02L13.987,51.454Z" transform="translate(13.475 35.502)" fill="#39cefd"/>
        </g>
      </g>
      <g id="Group_245" data-name="Group 245" transform="translate(0 0)">
        <g id="Group_244" data-name="Group 244" clip-path="url(#clip-path)">
          <path id="Path_174" data-name="Path 174" d="M4.682,60.3,64.176.8h36.6l-77.79,77.8Z" transform="translate(-4.682 -0.804)" fill="#39cefd"/>
        </g>
      </g>
      <g id="Group_247" data-name="Group 247" transform="translate(0 0)">
        <g id="Group_246" data-name="Group 246" clip-path="url(#clip-path)">
          <path id="Path_176" data-name="Path 176" d="M33.923,62.3h36.6L38.494,30.268,20.186,48.576Z" transform="translate(25.571 56.688)" fill="#03569b"/>
        </g>
      </g>
      <g id="Group_249" data-name="Group 249" transform="translate(0 0)">
        <g id="Group_248" data-name="Group 248" clip-path="url(#clip-path)">
          <path id="Path_178" data-name="Path 178" d="M38.494,30.268,20.186,48.576,47.339,39.17Z" transform="translate(25.571 56.688)" fill="url(#linear-gradient)"/>
        </g>
      </g>
      <g id="Group_251" data-name="Group 251" transform="translate(0 0)">
        <g id="Group_250" data-name="Group 250" clip-path="url(#clip-path)">
          <path id="Path_180" data-name="Path 180" d="M13.987,42.368,32.295,24.061,50.6,42.368,32.295,60.687Z" transform="translate(13.475 44.576)" fill="#16b9fd"/>
        </g>
      </g>
      <path id="Path_182" data-name="Path 182" d="M100.78,55.715,68.747,87.759,100.78,119.8h-36.6L50.439,106.067,32.132,87.759,64.176,55.715ZM64.176.8,4.682,60.3,22.989,78.606,100.78.8h-36.6Z" transform="translate(-4.682 -0.804)" fill="url(#radial-gradient)"/>
    </g>
  </g>
</svg>
