<svg xmlns="http://www.w3.org/2000/svg" width="78.457" height="110.742" viewBox="0 0 78.457 110.742">
  <g id="html5" transform="translate(-221.807 -89.47)">
    <path id="Path_167" data-name="Path 167" d="M228.947,291.606l-7.14-80.084h78.457l-7.148,80.072L260.987,300.5Z" transform="translate(0 -100.289)" fill="#e44d26"/>
    <path id="Path_168" data-name="Path 168" d="M441.807,323.868l25.962-7.2,6.109-68.425h-32.07Z" transform="translate(-180.771 -130.464)" fill="#f16529"/>
    <path id="Path_169" data-name="Path 169" d="M328.312,323.21h-13l-.9-10.058h13.895V303.33H303.683l.235,2.635,2.414,27.067h21.98Zm0,25.509-.043.012-10.939-2.954-.7-7.833h-9.86l1.376,15.422,20.12,5.585.045-.013Z" transform="translate(-67.277 -175.726)" fill="#ebebeb"/>
    <path id="Path_170" data-name="Path 170" d="M262.745,89.47h4.991V94.4H272.3V89.47h4.991V104.4H272.3v-5h-4.566v5h-4.991Zm21.113,4.952h-4.394V89.47h13.782v4.952h-4.4V104.4h-4.992V94.422Zm11.575-4.952h5.2l3.2,5.247,3.2-5.247h5.207V104.4h-4.972V97l-3.434,5.31h-.086L300.317,97v7.4h-4.884V89.47Zm19.3,0h4.993v10h7.02V104.4H314.729Z" transform="translate(-33.638)" fill="#fff"/>
    <path id="Path_171" data-name="Path 171" d="M441.617,323.21v9.822h12.095l-1.14,12.739-10.955,2.956v10.219l20.136-5.58.147-1.66,2.308-25.858.24-2.638H441.617Zm0-19.88v9.822h23.725l.2-2.208.448-4.979.235-2.635Z" transform="translate(-180.615 -175.726)" fill="#fff"/>
  </g>
</svg>
