<svg id="css3" xmlns="http://www.w3.org/2000/svg" xmlns:xlink="http://www.w3.org/1999/xlink" width="538.584" height="538.583" viewBox="0 0 538.584 538.583">
  <defs>
    <linearGradient id="linear-gradient" x1="-10.229" y1="13.597" x2="-10.229" y2="14.597" gradientUnits="objectBoundingBox">
      <stop offset="0.387" stop-color="#d1d3d4" stop-opacity="0"/>
      <stop offset="1" stop-color="#d1d3d4"/>
    </linearGradient>
    <linearGradient id="linear-gradient-2" x1="-9.516" y1="14.078" x2="-9.516" y2="15.078" xlink:href="#linear-gradient"/>
    <linearGradient id="linear-gradient-3" x1="-5.39" y1="6.703" x2="-4.39" y2="6.703" gradientUnits="objectBoundingBox">
      <stop offset="0" stop-color="#e8e7e5"/>
      <stop offset="1" stop-color="#fff"/>
    </linearGradient>
    <linearGradient id="linear-gradient-4" x1="-4.964" y1="30.297" x2="-3.964" y2="30.297" xlink:href="#linear-gradient-3"/>
  </defs>
  <path id="Path_238" data-name="Path 238" d="M0,0H538.584V538.583H0Z" fill="none"/>
  <path id="Path_239" data-name="Path 239" d="M405.5,467.454,269.29,504.13,133.078,467.454,101.646,126.929h335.29Z" fill="#2062af"/>
  <path id="Path_240" data-name="Path 240" d="M269.289,154.511V474.878l.308.084L379.826,445.28l25.443-290.769H269.289Z" fill="#3c9cd7"/>
  <path id="Path_241" data-name="Path 241" d="M191.985,76.9V56.631h29.571V34.453H169.807V97.137h51.749V76.9Zm82.766-20.268h20.674V34.453H243.671V56.631c6.924,6.924,10.535,10.238,20.549,20.252-5.854,0-20.549.021-20.549.02V97.137h51.754V76.9L274.751,56.631Zm73.352,0h20.673V34.453H317.02V56.631c6.924,6.924,10.537,10.238,20.551,20.252-5.852,0-20.551.021-20.551.02V97.137h51.757V76.9L348.1,56.631Z" fill="#fff"/>
  <path id="Path_242" data-name="Path 242" d="M269.168,239.656l-97.49,40.6,3.233,40.2,94.257-40.3,100.265-42.868,4.157-41.122-104.422,43.49Z" fill="#fff"/>
  <path id="Path_243" data-name="Path 243" d="M171.677,280.258l3.233,40.2,94.257-40.3v-40.5Z" fill="url(#linear-gradient)"/>
  <path id="Path_244" data-name="Path 244" d="M373.59,196.167,269.168,239.656v40.5l100.265-42.868Z" fill="url(#linear-gradient-2)"/>
  <path id="Path_245" data-name="Path 245" d="M171.827,280.258l3.234,40.2,144.625.461-3.235,53.6-47.59,13.4-45.748-11.551L220.341,343.1H177.833l5.545,64.225,85.945,25.412L354.8,407.781l11.09-127.523Z" fill="url(#linear-gradient-3)"/>
  <path id="Path_246" data-name="Path 246" d="M269.168,280.258h-97.49l3.233,40.2,94.257.3v-40.5Zm0,107.528-.462.129-45.742-11.551L220.192,343.1H177.685l5.544,64.225,85.939,25.412Z" opacity="0.05"/>
  <path id="Path_247" data-name="Path 247" d="M162.9,196.167H373.59l-4.157,41.122H167.98L162.9,196.167Z" fill="url(#linear-gradient-4)"/>
  <path id="Path_248" data-name="Path 248" d="M269.168,196.167H162.9l5.082,41.122H269.168V196.167Z" opacity="0.05"/>
</svg>
