<svg xmlns="http://www.w3.org/2000/svg" xmlns:xlink="http://www.w3.org/1999/xlink" width="147.188" height="119" viewBox="0 0 147.188 119">
  <defs>
    <linearGradient id="linear-gradient" x1="-4.183" y1="0.143" x2="-3.174" y2="0.794" gradientUnits="objectBoundingBox">
      <stop offset="0" stop-color="#909ca9"/>
      <stop offset="1" stop-color="#ededee"/>
    </linearGradient>
    <linearGradient id="linear-gradient-2" x1="-8.133" y1="37.388" x2="-6.64" y2="37.388" gradientUnits="objectBoundingBox">
      <stop offset="0" stop-color="#939fab"/>
      <stop offset="1" stop-color="#dcdee1"/>
    </linearGradient>
    <radialGradient id="radial-gradient" cx="0.443" cy="0.439" r="0.128" gradientTransform="matrix(-0.691, -0.149, -0.208, 1.978, -19.227, -9.973)" gradientUnits="objectBoundingBox">
      <stop offset="0" stop-color="#ee352c"/>
      <stop offset="1" stop-color="#a91d22"/>
    </radialGradient>
  </defs>
  <g id="microsoft-sql-server-logo-svgrepo-com" transform="translate(0 0.001)">
    <g id="Group_241" data-name="Group 241" transform="translate(52.969 -0.001)">
      <path id="Path_163" data-name="Path 163" d="M379.333,463.277l-16.255,5.308-14.141,6.241-3.956,1.044c-1.008.958-2.064,1.929-3.207,2.912-1.253,1.081-2.42,2.064-3.317,2.777a24.744,24.744,0,0,0-3.219,3.194,14.482,14.482,0,0,0-2.384,4.03,6.766,6.766,0,0,0,.958,6.082c1.671,2.457,5,4.963,8.883,6.671a56.432,56.432,0,0,0,7.814,2.617,103.46,103.46,0,0,0,16.66,2.371,19.087,19.087,0,0,0,2.15,0,29.267,29.267,0,0,0,1.585-3.01,76.1,76.1,0,0,0,5.762-15.247,72.257,72.257,0,0,0,1.474-10.566c.086-1.192.123-5.185.049-6.537a45.921,45.921,0,0,0-.614-5.762,1.329,1.329,0,0,1-.037-.5,21.261,21.261,0,0,1,2.2-.664l-.405-.958h0Zm-3.71,2.175a39.8,39.8,0,0,1,.639,6.156,3.289,3.289,0,0,1-.012.835c-.1,0-2.076-1.167-3.489-2.052-1.229-.774-3.563-2.322-3.932-2.617-.123-.086-.111-.1.9-.442C371.433,466.754,375.488,465.452,375.623,465.452Zm-8.281,2.728a4.078,4.078,0,0,1,1.069.577,76.18,76.18,0,0,0,7.446,4.141c.455.2.5.123-.541.835a53.55,53.55,0,0,1-8.441,4.534c-.6.27-1.106.479-1.118.479a3.186,3.186,0,0,1,.147-.676,36.229,36.229,0,0,0,1.315-8.637c.012-1.229.012-1.229.123-1.265C367.317,468.18,367.329,468.18,367.342,468.18Zm-1.708.651a26.505,26.505,0,0,1-.074,3.575,31.277,31.277,0,0,1-1.13,5.345,8.209,8.209,0,0,1-.283.86,21.61,21.61,0,0,1-2.285-2.224,16.622,16.622,0,0,1-2.261-3.293,10.351,10.351,0,0,1-.688-1.671C359.11,471.288,365.585,468.782,365.634,468.831Zm-8.035,3.158a.045.045,0,0,1,.037.012,2.3,2.3,0,0,1,.184.442,16.6,16.6,0,0,0,2.039,3.649,20.8,20.8,0,0,0,2.838,3.059c.295.246.565.479.6.516.074.074.1.061-1.9.823-2.322.885-4.853,1.769-7.753,2.7q-1.039.335-2.076.676c-.111.037-.074-.025.246-.528a69.086,69.086,0,0,0,4.853-9.78c.209-.541.418-1.081.455-1.2a.443.443,0,0,1,.27-.32,1.191,1.191,0,0,1,.209-.049Zm-2.457,1.02a27.478,27.478,0,0,1-1.2,2.543c-1.192,2.322-2.494,4.608-4.239,7.384-.295.479-.577.921-.614.971-.061.086-.086.061-.283-.319a11.269,11.269,0,0,1-.946-2.851,11.472,11.472,0,0,1,.062-3.661c.16-.762.147-.749.516-.934,1.573-.8,6.659-3.182,6.708-3.133Zm21.194.86v.516a66.842,66.842,0,0,1-.725,9.239c-.074.479-.135.872-.147.885s-.356-.1-.774-.221a31.713,31.713,0,0,1-5.652-2.42,25.024,25.024,0,0,1-2.875-1.769c.012-.012.528-.283,1.13-.6a72.416,72.416,0,0,0,6.721-3.944c.749-.5,1.88-1.315,2.126-1.536Zm-30.47,3.636c.049,0,.037.1-.037.541-.049.32-.111.909-.135,1.315a9.091,9.091,0,0,0,1.081,4.939,10.192,10.192,0,0,1,.43.934c-.086.074-8.219,2.458-10.775,3.158-.762.209-1.425.393-1.474.405-.086.025-.1.012-.061-.2a12.909,12.909,0,0,1,3.575-6.155,15.889,15.889,0,0,1,4.042-3.1c1.253-.712,3.182-1.781,3.33-1.831C345.841,477.5,345.853,477.5,345.865,477.5Zm19.167,3.428a4.953,4.953,0,0,1,.663.356,37.021,37.021,0,0,0,9.411,3.661l.283.062-.393.221c-1.634.909-7,3.145-12.495,5.2-.8.295-1.585.59-1.733.651a.886.886,0,0,1-.283.086c0-.012.221-.442.5-.971a60.609,60.609,0,0,0,3.87-8.809C364.958,481.154,365.019,480.945,365.032,480.933Zm-1.953.639a3.54,3.54,0,0,1-.209.565,77.8,77.8,0,0,1-4.263,8.588c-.455.811-.835,1.462-.848,1.462s-.381-.221-.823-.492a25.268,25.268,0,0,1-6.426-5.467l-.221-.27,1.118-.307a80.235,80.235,0,0,0,10.787-3.723C362.673,481.731,363.066,481.571,363.078,481.571Zm12.139,4.239h0c.012.283-.615,2.814-1.131,4.644-.43,1.536-.8,2.74-1.474,4.865-.295.934-.553,1.708-.565,1.708a.809.809,0,0,1-.16-.037,51.352,51.352,0,0,1-9.989-2.814c-.86-.344-2.089-.9-2.162-.958a14.321,14.321,0,0,1,1.646-.774c5.59-2.445,11.389-5.222,13.38-6.413A1.6,1.6,0,0,1,375.217,485.81Zm-28.025.958c.025.025-1.536,2.273-3.723,5.332-.762,1.069-1.646,2.322-1.978,2.789s-.835,1.2-1.118,1.647l-.516.8-.553-.467a20.469,20.469,0,0,1-2.285-2.334,10.083,10.083,0,0,1-2.052-3.968c-.135-.59-.135-.885-.012-.922.184-.049,3.465-.823,6.536-1.536,1.708-.393,3.686-.86,4.4-1.032s1.29-.307,1.3-.307Zm1.573.6.393.442a23.072,23.072,0,0,0,5.762,4.718,3.226,3.226,0,0,1,.663.43c-.086.061-7.593,2.727-11.07,3.931-1.953.688-3.563,1.241-3.575,1.241a2.109,2.109,0,0,1-.246-.16l-.221-.16.356-.516c1.155-1.671,2.6-3.5,5.762-7.31Zm9.8,7.015c.012-.012.553.184,1.216.43a39.331,39.331,0,0,0,4.558,1.413,50.474,50.474,0,0,0,6.893,1.192c.27.024.418.049.369.086-.086.049-1.892.651-3.219,1.069-2.113.663-8.564,2.568-13.822,4.079-.971.283-1.806.516-1.855.528a.974.974,0,0,1-.528-.135,8.893,8.893,0,0,1,.651-.823,72.946,72.946,0,0,0,4.988-6.708C358.225,494.9,358.569,494.4,358.569,494.386Zm-2.163.062c.012.012-.86,1.413-2.383,3.821-.651,1.02-1.376,2.175-1.634,2.58s-.614,1.008-.823,1.351l-.356.627-.184-.049c-.442-.123-3.551-1.216-4.374-1.548a30.441,30.441,0,0,1-2.863-1.315,11.959,11.959,0,0,1-2.113-1.339c.025-.012,1.708-.467,3.735-1.02,5.382-1.462,8.367-2.31,10.321-2.924A4.917,4.917,0,0,1,356.407,494.448Zm15.3,3.587h.012c.049.123-1.941,5.652-2.666,7.4-.16.393-.221.492-.307.479-.209-.012-3.1-.418-4.853-.676-3.059-.467-8.195-1.364-9.485-1.659l-.295-.061,1.83-.418c3.932-.885,5.824-1.364,7.74-1.953a54.713,54.713,0,0,0,7.237-2.789A5.935,5.935,0,0,1,371.7,498.035Z" transform="translate(-332.513 -425.386)" fill="url(#linear-gradient)"/>
      <path id="Path_164" data-name="Path 164" d="M473.989,82.735a78.107,78.107,0,0,0-7.446,2.678,46.494,46.494,0,0,0-8.564,4.3,6.5,6.5,0,0,0-1.659,1.659,1.15,1.15,0,0,0-.074.418l1.647,1.56,3.919,1.253,9.325,1.671L481.8,98.105l.111-.921c-.037,0-.061-.012-.1-.012l-1.4-.221-.283-.5c-1.45-2.556-3.047-5.725-3.981-7.863a40.645,40.645,0,0,1-1.794-4.951c-.209-.835-.233-.885-.368-.9h0Zm-.2.627h.013c.012.012.061.356.11.762a25.66,25.66,0,0,0,1.192,5.173c.454,1.352.454,1.278-.074,1.118-1.253-.344-6.868-1.315-10.935-1.88-.651-.086-1.2-.172-1.2-.184-.049-.049,2.936-1.61,4.251-2.224,1.683-.774,6.3-2.7,6.647-2.764Zm-11.844,5.5.479.16a73.237,73.237,0,0,0,12.765,2.433c.405.037.749.074.761.074a5.661,5.661,0,0,1-.774.405c-1.745.872-3.661,1.941-4.988,2.765a5.093,5.093,0,0,1-.8.442c-.049,0-.307-.049-.577-.086l-.491-.074-1.229-1.2c-2.162-2.1-3.858-3.723-4.509-4.337Zm-.491.381,1.732,2.162c.946,1.192,1.9,2.359,2.113,2.617a4.039,4.039,0,0,1,.369.479c-.049.037-2.506-.442-3.809-.737-1.339-.307-1.892-.455-2.715-.713l-.676-.221v-.172c.012-.823,1.057-2.052,2.826-3.3ZM476.176,92.2c.049,0,.11.111.258.442.418.921,1.72,3.4,2.039,3.882.1.16.27.172-1.462-.11-4.165-.676-5.5-.9-5.5-.921a1.275,1.275,0,0,1,.283-.184,23.987,23.987,0,0,0,3.747-2.592c.283-.233.541-.455.59-.492.012-.025.037-.037.049-.025Z" transform="translate(-443.927 -82.734)" fill="url(#linear-gradient-2)"/>
      <path id="Path_165" data-name="Path 165" d="M399.3,167.757a1.224,1.224,0,0,0-.012,1.069,4.854,4.854,0,0,0,1.155,1.364s5.467,5.332,6.131,6.094a17.082,17.082,0,0,1,4.46,11.672,18.9,18.9,0,0,1-1.941,8.834c-2.556,5.578-7.949,11.733-16.267,18.565l1.216-.406a39.08,39.08,0,0,1,4.362-2.592,155.473,155.473,0,0,1,20.285-9.08c11.5-4.325,30.409-9.387,41.171-11.033l1.118-.172-.172-.27a37.86,37.86,0,0,0-2.47-3.477,29.521,29.521,0,0,0-8.723-7.261c-4.816-2.691-11.046-4.792-18.933-6.352-1.487-.3-4.755-.86-7.409-1.266-5.627-.872-9.264-1.474-13.269-2.162-1.437-.246-3.588-.614-5.013-.921a31.834,31.834,0,0,1-3.256-.872C400.848,169.145,399.57,168.8,399.3,167.757Zm3.17,3.072a3.423,3.423,0,0,1,.467.147c.467.16,1.069.344,1.782.541q.809.223,1.622.43c.737.184,1.351.356,1.364.356.086.086,1.327,4.054,1.745,5.578.16.578.283,1.069.27,1.069a2.482,2.482,0,0,1-.307-.479,25.574,25.574,0,0,0-6.34-7.163,5.233,5.233,0,0,1-.6-.479Zm6.045,1.671a4.832,4.832,0,0,1,.663.111c2.089.467,5.836,1.179,8.232,1.585a3.008,3.008,0,0,1,.725.16,1.24,1.24,0,0,1-.332.209c-.405.209-2.039,1.179-2.58,1.548a23.537,23.537,0,0,0-3.477,2.777c-.356.356-.664.651-.664.651s-.073-.209-.135-.467a39.825,39.825,0,0,0-2.2-6.02,5.264,5.264,0,0,1-.246-.565C408.5,172.512,408.5,172.5,408.514,172.5Zm10.64,2.027a4.723,4.723,0,0,1,.442,1.364,20.117,20.117,0,0,1,.59,5.627c-.025.516-.049,1-.074,1.057l-.037.123-.639-.209c-1.315-.418-3.452-1.044-5.283-1.56-1.045-.283-1.892-.541-1.892-.565a29.041,29.041,0,0,1,2.175-2.175A57.029,57.029,0,0,1,419.154,174.527Zm.848.123c.037-.037,5.087.835,7.384,1.278,1.708.332,4.19.848,4.337.909.074.024-.184.172-1.008.54a53.334,53.334,0,0,0-8.047,4.374c-.627.418-1.155.762-1.167.762a6.669,6.669,0,0,1-.025-.786,17.159,17.159,0,0,0-1.327-6.684A1.865,1.865,0,0,1,420,174.65Zm13.06,2.58a9.264,9.264,0,0,1-.27,1.622,30.8,30.8,0,0,1-3.1,7.1,8.106,8.106,0,0,1-.516.835,5.249,5.249,0,0,1-.737-.393,40.019,40.019,0,0,0-4.816-2.359c-.491-.209-.921-.381-.934-.405-.086-.074,3.87-2.691,5.959-3.944C430.31,178.68,433.013,177.181,433.062,177.23Zm.934.147c.111,0,2.347.614,3.514.958a72.489,72.489,0,0,1,8.367,3.059l.9.406-.626.147a91.585,91.585,0,0,0-14.166,4.386c-.356.147-.676.27-.7.27a3.165,3.165,0,0,1,.258-.627,24.88,24.88,0,0,0,2.371-8.183c.013-.233.049-.418.086-.418Zm-22.263,5.111c.037-.037,1.745.369,2.666.626,1.4.393,4.374,1.388,4.374,1.462,0,.012-.332.295-.725.639-1.609,1.339-3.158,2.752-5.013,4.546-.553.529-1.02.958-1.044.958s-.037-.074-.025-.172a27.7,27.7,0,0,0-.172-7.409C411.758,182.8,411.721,182.5,411.733,182.488Zm35.888.037a23.6,23.6,0,0,1-1.3,2.027c-.737,1.057-1.819,2.458-4.263,5.529-1.29,1.622-2.74,3.452-3.219,4.067s-.9,1.13-.909,1.13a4.254,4.254,0,0,1-.344-.491,25.388,25.388,0,0,0-4.976-5.492c-.369-.307-.774-.639-.909-.737a1.369,1.369,0,0,1-.246-.209c0-.037,2.089-.934,3.674-1.573,2.777-1.13,6.56-2.482,9.4-3.354C446.012,182.955,447.6,182.5,447.622,182.525Zm.946.246a2.832,2.832,0,0,1,.7.344,41.671,41.671,0,0,1,8.219,6.168c.651.639,2.261,2.31,2.236,2.322,0,0-.565.049-1.229.1a121.105,121.105,0,0,0-18.159,3.022c-.43.1-.811.184-.835.184s.455-.479,1.057-1.056a31.434,31.434,0,0,0,7.458-9.927c.283-.6.528-1.118.553-1.155h0Zm-27.362,2.8c.172.037,1.769.786,2.973,1.388,1.106.553,2.764,1.437,2.85,1.511.012.012-.578.319-1.3.676-2.31,1.155-4.288,2.248-6.352,3.5-.59.356-1.081.651-1.093.651-.049,0-.037-.049.295-.651a25.655,25.655,0,0,0,2.494-6.77c.049-.184.1-.307.135-.307Zm-1.6.295a23.447,23.447,0,0,1-.639,2.371,30.253,30.253,0,0,1-2.175,4.988c-.2.344-.492.848-.651,1.13l-.307.491-.688-.663a9.027,9.027,0,0,0-2.285-1.683,3.3,3.3,0,0,1-.59-.344c0-.1,2.1-2,3.71-3.379C417.139,187.784,419.572,185.83,419.609,185.867Zm9.768,4.018.6.393a46.715,46.715,0,0,1,4.239,3.133c.7.577,2.052,1.794,2.322,2.089l.147.16-.995.282c-5.627,1.56-9.977,2.949-15.051,4.816-.565.209-1.044.381-1.081.381-.073,0-.135.061,1.131-1.106a53.942,53.942,0,0,0,8.256-9.485l.43-.663Zm-2.568.639c.025.024-1.659,2.4-2.666,3.735-1.2,1.6-3.342,4.276-4.816,6.02-.614.725-1.142,1.327-1.167,1.339s-.049-.172-.049-.455a10.3,10.3,0,0,0-1.044-4.423c-.283-.565-.332-.7-.27-.762.233-.209,3.809-2.249,6.069-3.465C424.388,191.7,426.772,190.5,426.809,190.524Zm-15.53,3.809a5.423,5.423,0,0,1,.639.319,13.487,13.487,0,0,1,2.113,1.425,3.665,3.665,0,0,1-.713.59c-1.167.835-2.936,2.175-3.968,3-1.081.86-1.118.885-1,.7A22.652,22.652,0,0,0,410,197.527a22.884,22.884,0,0,0,1.032-2.568A2.083,2.083,0,0,1,411.279,194.332Zm4.141,3.243c.061-.012.135.1.467.59a8.862,8.862,0,0,1,1.376,3.575l.024.246-1.683.651c-3.01,1.167-5.787,2.322-7.667,3.182-.528.246-1.45.688-2.052.983s-1.094.54-1.094.528.381-.295.848-.639a49.542,49.542,0,0,0,9.239-8.514c.258-.307.492-.59.516-.6Zm-1.9.467a25.964,25.964,0,0,1-2.31,2.6,40.752,40.752,0,0,1-7.63,6.156c-.369.233-.7.442-.737.467-.086.049.025-.074,1.3-1.462.811-.872,1.425-1.61,2.126-2.519a4.153,4.153,0,0,1,1.229-1.167C409.3,200.819,413.466,197.994,413.515,198.043Z" transform="translate(-386.819 -159.291)" fill="url(#radial-gradient)"/>
    </g>
    <path id="Path_166" data-name="Path 166" d="M26.461,800.346c-.227,0-.453.022-.678.022-4.578.244-7.665,2.259-9.471,6.193a16.327,16.327,0,0,0,.017,11.789c1.62,3.5,4.237,5.344,8.6,6.042.924.151,1.544.659,3.334,2.749l2.2,2.581h3.995l-2.656-2.678a28.341,28.341,0,0,1-2.656-2.859c0-.112.562-.358,1.242-.565a9.129,9.129,0,0,0,5.4-5.064,10.636,10.636,0,0,0,1.356-5.441c.4-7.892-3.766-12.826-10.695-12.77Zm3.5,20.638a9.4,9.4,0,0,1-6.607.453,8.523,8.523,0,0,1-4.578-4.917c-.922-2.448-.79-6.966.263-9,1.7-3.239,3.936-4.729,7.212-4.729,4.858,0,7.622,2.976,7.983,8.568.285,4.668-1.278,8.171-4.271,9.622Zm69.006-13.9a4.279,4.279,0,0,0-3.822,2.014l-.678,1.058v-2.751h-2.9v16.5h2.9v-5.273c0-4.822.06-5.385.734-6.7.929-1.81,2.526-2.712,4.07-2.28l1.036.3v-2.859H98.97Zm-17.037-.151a7.781,7.781,0,0,0-7.7,8.758c0,3.2.622,4.8,2.166,6.478,3.163,2.6,6.024,2.8,9.885,1.41.659-.281,1.376-.6,1.376-.6v-2.6l-1.376.712c-3.124,1.36-5.478,1.36-7.363-.242a7.431,7.431,0,0,1-1.976-4.368H88.633V814.26c0-4.534-2.729-7.4-6.7-7.324ZM77.2,814.169s.432-2.828,2.034-3.938a4.372,4.372,0,0,1,2.522-.807,4.035,4.035,0,0,1,2.449.827c1.469,1.129,1.715,3.9,1.715,3.9H77.2v.021ZM7.293,811.194c-3.144-1.9-4.539-3.278-4.368-4.9.488-4.48,6.024-3.861,9.09-2.166l.022-3.014a11.824,11.824,0,0,0-4.124-.773C4.186,800.288,1.776,801.51.647,804c-1.658,3.671-.19,6.439,5.118,9.527,2.98,1.734,4.3,3.239,4.3,4.88,0,3.39-4.087,4.573-8.3,2.446-.868-.432-1.6-.793-1.641-.793a26.037,26.037,0,0,0-.073,3.261,18.015,18.015,0,0,0,3.239.919c4.819.961,9.2-1.3,9.619-4.971.361-3.446-.885-5.254-5.608-8.076Zm117.341-4.3a8.785,8.785,0,0,0-1.792.209,8.26,8.26,0,0,0-5.91,8.551c0,3.2.62,4.781,2.164,6.456,3.164,2.6,6.025,2.807,9.9,1.412.656-.281,1.371-.6,1.371-.6v-2.6l-1.373.717c-3.131,1.356-5.485,1.356-7.363-.246a7.336,7.336,0,0,1-1.978-4.368H131.33V814.2c0-4.513-2.729-7.378-6.7-7.3l.007,0Zm-4.729,7.234s.436-2.824,2.036-3.956a4.35,4.35,0,0,1,2.52-.81,4.034,4.034,0,0,1,2.449.829c1.468,1.129,1.715,3.917,1.715,3.917h-8.717l0,.019Zm-53.153-2.9c-3.144-1.9-4.535-3.278-4.366-4.9.488-4.483,6.025-3.861,9.091-2.166l.022-3.014a11.768,11.768,0,0,0-4.124-.769c-3.727-.056-6.137,1.166-7.268,3.654-1.656,3.671-.168,6.439,5.122,9.527,2.976,1.732,4.293,3.217,4.293,4.858,0,3.39-4.085,4.593-8.3,2.446-.864-.432-1.6-.788-1.641-.788a26.032,26.032,0,0,0-.073,3.26,19.712,19.712,0,0,0,3.217.92c4.824.963,9.211-1.3,9.624-4.966.358-3.429-.885-5.236-5.593-8.06v0Zm74.92-4.182a4.262,4.262,0,0,0-3.822,2.017l-.678,1.054v-2.746h-2.9v16.492h2.9v-5.273c0-4.82.058-5.385.734-6.7.928-1.807,2.526-2.712,4.07-2.278l1.036.3v-2.865h-1.339Zm-97.981,4.087V800.628H40.768V823.9H53.063v-2.749H43.692V811.136Zm67.611,3.276-2.41,6.271-2.317-6.305-2.354-6.987H101.23c1.939,5.5,4.048,11.09,6.175,16.512.922.021,1.846,0,2.768,0l3.254-8.171,3.314-8.339h-2.861s-1.263,3.312-2.58,7.022ZM50.429,794.287a1.6,1.6,0,0,0,1.188-.475,1.575,1.575,0,0,0,.488-1.166,1.548,1.548,0,0,0-.488-1.166,1.624,1.624,0,0,0-1.166-.454,1.6,1.6,0,0,0-1.188.471,1.571,1.571,0,0,0-.471,1.166,1.522,1.522,0,0,0,.471,1.166,1.586,1.586,0,0,0,1.166.453Zm-1.036-2.677a1.479,1.479,0,0,1,2.526,1.036,1.45,1.45,0,0,1-.432,1.054,1.411,1.411,0,0,1-1.037.414,1.377,1.377,0,0,1-1.036-.414,1.45,1.45,0,0,1-.432-1.054A1.393,1.393,0,0,1,49.393,791.609Zm.7,1.188h.19c.134,0,.266.129.378.376l.227.509h.356l-.281-.566c-.114-.227-.227-.358-.358-.4a.687.687,0,0,0,.393-.207.519.519,0,0,0,.129-.378.482.482,0,0,0-.168-.4.945.945,0,0,0-.6-.166h-.6v2.11h.3V792.8Zm0-.98h.264a.674.674,0,0,1,.4.095c.071.056.091.13.091.263,0,.244-.151.359-.432.359h-.324v-.717ZM1.8,792.609c0-.734-.022-1.28-.039-1.6h.017a4.815,4.815,0,0,0,.244.851l2.807,6.271H5.3L8.1,791.8a5.709,5.709,0,0,0,.244-.792h.022c-.056.626-.075,1.17-.075,1.6v5.534h.961v-8.227h-1.2l-2.58,5.722c-.1.227-.227.566-.4,1.015H5.034a6.591,6.591,0,0,0-.376-.976L2.137,789.9H.856v8.227H1.78v-5.515l.015,0Zm9.563.015h.829v5.124h-.829Zm.415-1.879a.585.585,0,0,0,.432-.173.6.6,0,0,0,.19-.432.543.543,0,0,0-.188-.432.6.6,0,0,0-.436-.173.592.592,0,0,0-.432.173.608.608,0,0,0-.19.432.52.52,0,0,0,.19.432.622.622,0,0,0,.432.173ZM18.1,797.86v-.9a2.386,2.386,0,0,1-1.447.508,1.875,1.875,0,0,1-1.453-.6,2.339,2.339,0,0,1-.546-1.62,2.432,2.432,0,0,1,.583-1.71,1.9,1.9,0,0,1,1.468-.622,2.41,2.41,0,0,1,1.395.454V792.4a2.871,2.871,0,0,0-1.356-.3,2.9,2.9,0,0,0-2.224.885,3.31,3.31,0,0,0-.825,2.332,2.991,2.991,0,0,0,.752,2.112,2.672,2.672,0,0,0,2.034.846,3.32,3.32,0,0,0,1.619-.415Zm2.373-2.732a2.657,2.657,0,0,1,.432-1.6,1.182,1.182,0,0,1,.961-.509,1.1,1.1,0,0,1,.712.19v-.98a1.494,1.494,0,0,0-.561-.076,1.432,1.432,0,0,0-.907.324,1.983,1.983,0,0,0-.637.993h-.022v-1.2h-.939v5.873h.941v-3.014Zm5.4,3.131a2.779,2.779,0,0,0,2.127-.851,3.7,3.7,0,0,0,.056-4.5,2.6,2.6,0,0,0-2.051-.81,2.947,2.947,0,0,0-2.127.773,3.2,3.2,0,0,0-.864,2.371,3.06,3.06,0,0,0,.752,2.166,2.735,2.735,0,0,0,2.107.848Zm-1.339-4.785a1.856,1.856,0,0,1,1.412-.566,1.756,1.756,0,0,1,1.4.566,3.149,3.149,0,0,1,.037,3.371,1.716,1.716,0,0,1-1.412.6,1.836,1.836,0,0,1-1.432-.6,2.38,2.38,0,0,1-.527-1.658A2.305,2.305,0,0,1,24.539,793.475Zm8.378,4.273a1.543,1.543,0,0,0,.549-1.205,1.47,1.47,0,0,0-.432-1.073,3.332,3.332,0,0,0-1.095-.639,3.424,3.424,0,0,1-.885-.49.806.806,0,0,1-.244-.6.711.711,0,0,1,.281-.583,1.16,1.16,0,0,1,.756-.224,2.218,2.218,0,0,1,1.339.417V792.4a2.76,2.76,0,0,0-1.263-.281,2.24,2.24,0,0,0-1.49.488,1.613,1.613,0,0,0-.207,2.276,3.043,3.043,0,0,0,1.054.659,3.959,3.959,0,0,1,.961.546.718.718,0,0,1,.244.562c0,.548-.376.831-1.11.831a2.328,2.328,0,0,1-1.527-.561v1.014a2.775,2.775,0,0,0,1.447.359,2.555,2.555,0,0,0,1.619-.546ZM37.4,792.1a2.948,2.948,0,0,0-2.127.773,3.221,3.221,0,0,0-.864,2.371,3.071,3.071,0,0,0,.751,2.166,3.066,3.066,0,0,0,4.237,0,3.164,3.164,0,0,0,.792-2.259,3.221,3.221,0,0,0-.734-2.241,2.655,2.655,0,0,0-2.051-.81l0,0Zm1.827,3.088a2.527,2.527,0,0,1-.471,1.658,1.717,1.717,0,0,1-1.412.6,1.836,1.836,0,0,1-1.432-.6,2.38,2.38,0,0,1-.527-1.658,2.415,2.415,0,0,1,.566-1.732,1.857,1.857,0,0,1,1.412-.566,1.786,1.786,0,0,1,1.39.566,2.862,2.862,0,0,1,.471,1.732Zm2.544,2.939h.939v-5.085h1.375v-.791H42.71v-.907c0-.825.319-1.239.98-1.239a1.3,1.3,0,0,1,.618.151v-.848a1.722,1.722,0,0,0-.678-.093,1.753,1.753,0,0,0-1.261.471,1.981,1.981,0,0,0-.6,1.525v.963H40.77v.79h.994v5.066Zm3.858-1.6c0,1.149.508,1.734,1.544,1.734a1.7,1.7,0,0,0,.885-.194v-.808a.983.983,0,0,1-.6.19.8.8,0,0,1-.676-.246,1.379,1.379,0,0,1-.209-.846v-3.314h1.49v-.79h-1.49v-1.732c-.324.112-.641.207-.942.3v1.429H44.612v.79h1.015v3.483ZM146.683,807.35a1.617,1.617,0,0,0-1.166-.453,1.616,1.616,0,0,0-1.659,1.641,1.539,1.539,0,0,0,.469,1.166,1.657,1.657,0,0,0,1.188.454,1.619,1.619,0,0,0,1.188-.471,1.591,1.591,0,0,0,.486-1.166,1.632,1.632,0,0,0-.507-1.17Zm-.151,2.224a1.515,1.515,0,0,1-2.073,0,1.465,1.465,0,0,1-.432-1.058,1.411,1.411,0,0,1,1.468-1.447,1.407,1.407,0,0,1,1.037.41,1.425,1.425,0,0,1,.432,1.036A1.355,1.355,0,0,1,146.532,809.575Zm-.847-.961a.813.813,0,0,0,.4-.207.52.52,0,0,0,.13-.38.481.481,0,0,0-.168-.4.947.947,0,0,0-.6-.166h-.6v2.107h.3v-.885h.188c.13,0,.259.13.376.376l.224.508h.359l-.281-.566c-.1-.246-.21-.359-.324-.4Zm-.207-.19h-.324v-.713h.266a.661.661,0,0,1,.4.093c.075.056.093.129.093.263,0,.244-.151.356-.432.356ZM92.945,792.007h.264V789.9h.7v-.263H92.248v.263h.7v2.11Zm1.6-1.585a3.793,3.793,0,0,0-.015-.468,1.315,1.315,0,0,0,.073.244l.81,1.809h.13l.812-1.827c.022-.056.039-.13.076-.227-.017.188-.017.339-.017.453V792h.281v-2.371h-.339l-.734,1.637c-.017.058-.076.173-.112.3h-.022a1.721,1.721,0,0,0-.108-.281l-.734-1.658h-.38v2.375h.265v-1.585Z" transform="translate(0 -710.721)" fill="#959595"/>
  </g>
</svg>
