<svg xmlns="http://www.w3.org/2000/svg" width="119" height="89.243" viewBox="0 0 119 89.243">
  <path id="Sass_Logo_Color" d="M102.442,51.276a24.638,24.638,0,0,0-10.781,2.5c-1.109-2.2-2.217-4.152-2.413-5.586a15,15,0,0,1-.217-4.695,41.7,41.7,0,0,1,1.413-5.064c-.022-.217-.261-1.239-2.652-1.261s-4.456.456-4.695,1.087a26.227,26.227,0,0,0-1,3.543c-.413,2.174-4.782,9.933-7.282,14a15.1,15.1,0,0,1-1.652-4.086,15,15,0,0,1-.217-4.695,41.7,41.7,0,0,1,1.413-5.064c-.022-.217-.261-1.239-2.652-1.261s-4.456.456-4.695,1.087-.5,2.108-1,3.543-6.3,14.389-7.825,17.736c-.782,1.717-1.456,3.086-1.934,4.021h0a.991.991,0,0,1-.087.174c-.413.8-.652,1.239-.652,1.239v.022c-.326.587-.674,1.13-.848,1.13a7.273,7.273,0,0,1,.043-3.7c.869-4.5,2.934-11.5,2.913-11.737,0-.13.391-1.348-1.348-1.978a2.158,2.158,0,0,0-2.456.413c-.152,0-.261.37-.261.37s1.891-7.868-3.608-7.868c-3.434,0-8.173,3.76-10.52,7.151-1.478.8-4.63,2.521-8,4.369-1.282.717-2.608,1.435-3.847,2.108-.087-.087-.174-.2-.261-.283C20.672,51.385,8.369,46.364,8.891,36.822c.2-3.478,1.391-12.607,23.627-23.692,18.3-9.02,32.865-6.521,35.386-.978,3.608,7.912-7.8,22.605-26.713,24.735-7.216.8-11-1.978-11.955-3.021-1-1.087-1.152-1.152-1.522-.935-.609.326-.217,1.3,0,1.869.565,1.478,2.891,4.086,6.825,5.369,3.478,1.13,11.933,1.761,22.171-2.2,11.455-4.434,20.41-16.758,17.78-27.083C71.86.414,54.471-3.042,38.017,2.805,28.236,6.283,17.629,11.76,10,18.89.936,27.366-.5,34.735.088,37.821,2.2,48.776,17.3,55.906,23.345,61.187c-.3.174-.587.326-.826.456-3.021,1.5-14.541,7.521-17.41,13.889-3.26,7.216.522,12.389,3.021,13.085,7.76,2.152,15.737-1.717,20.019-8.107s3.76-14.693,1.782-18.5a.455.455,0,0,0-.087-.13c.782-.456,1.587-.935,2.369-1.391,1.543-.913,3.065-1.761,4.369-2.456a28.647,28.647,0,0,0-1.543,7.912c-.326,4.086,1.348,9.39,3.543,11.477a3.915,3.915,0,0,0,2.869.935c2.565,0,3.717-2.13,5-4.651,1.565-3.086,2.978-6.673,2.978-6.673s-1.761,9.694,3.021,9.694c1.739,0,3.5-2.261,4.282-3.413v.022s.043-.065.13-.217c.174-.283.283-.456.283-.456V72.62c.7-1.217,2.261-3.978,4.586-8.564,3-5.912,5.89-13.3,5.89-13.3a37.775,37.775,0,0,0,1.152,4.8,45.233,45.233,0,0,0,2.478,5.564c-.7.978-1.13,1.522-1.13,1.522l.022.022c-.565.739-1.174,1.543-1.848,2.326-2.369,2.826-5.195,6.064-5.586,7a1.9,1.9,0,0,0,.522,2.565,4.742,4.742,0,0,0,2.913.478,13.375,13.375,0,0,0,4.369-1,14.662,14.662,0,0,0,3.76-1.978,8.415,8.415,0,0,0,3.608-7.412,14.965,14.965,0,0,0-1.369-5.238c.217-.3.413-.609.63-.913a99.569,99.569,0,0,0,6.521-11.259,37.777,37.777,0,0,0,1.152,4.8,32.175,32.175,0,0,0,2.108,4.782,20.66,20.66,0,0,0-6.347,8.194c-1.369,3.956-.3,5.738,1.717,6.151a6.058,6.058,0,0,0,3.173-.652,14.455,14.455,0,0,0,4.021-2.065c2.326-1.717,4.565-4.108,4.434-7.347a13.889,13.889,0,0,0-1-4.347,22.764,22.764,0,0,1,11.542-1.326c10.346,1.217,12.389,7.673,12,10.39a6.876,6.876,0,0,1-3.282,4.651c-.717.456-.956.609-.891.935.087.478.435.456,1.043.37a8.08,8.08,0,0,0,5.63-7.195C119.287,58.188,113.2,51.211,102.442,51.276ZM22.628,78.185c-3.434,3.739-8.216,5.151-10.281,3.956-2.217-1.282-1.348-6.8,2.869-10.759a54.757,54.757,0,0,1,8.064-6.021c.5-.3,1.239-.739,2.13-1.282.152-.087.239-.13.239-.13h0l.522-.326A14.846,14.846,0,0,1,22.628,78.185Zm25-17c-1.2,2.913-3.7,10.368-5.217,9.955-1.3-.348-2.108-6-.261-11.585A26.319,26.319,0,0,1,46.212,52.1c1.869-2.087,3.934-2.782,4.434-1.934C51.276,51.276,48.363,59.362,47.624,61.187Zm20.627,9.868c-.5.261-.978.435-1.2.3-.152-.087.217-.435.217-.435s2.587-2.782,3.608-4.043c.587-.739,1.282-1.608,2.021-2.587v.283C72.9,67.9,69.686,70.143,68.252,71.055Zm15.911-3.63c-.37-.261-.3-1.13.935-3.847a14.482,14.482,0,0,1,3.543-4.565,6.153,6.153,0,0,1,.348,2C88.966,65.209,85.966,66.774,84.162,67.426Z" transform="translate(0.026 0.026)" fill="#cd6799"/>
</svg>
