<svg id="experience_1_" data-name="experience (1)" xmlns="http://www.w3.org/2000/svg" width="119" height="119" viewBox="0 0 119 119">
  <circle id="Ellipse_265" data-name="Ellipse 265" cx="59.499" cy="59.499" r="59.499" transform="translate(0 0)" fill="#592b49"/>
  <path id="Path_160" data-name="Path 160" d="M186.813,171.79,166.37,151.347H157.2v17.239a12.983,12.983,0,0,0-10.056-4.832,15.62,15.62,0,0,0-2.919.268l-12.674-12.674h-11.2l-7.21,11.792-11.792-11.792h-11.3l14.822,22.887L88.515,199.211,124.4,235.094q1.513.076,3.044.077a59.5,59.5,0,0,0,59.5-59.5C186.942,174.367,186.9,173.074,186.813,171.79Z" transform="translate(-67.942 -116.171)" fill="#291221"/>
  <g id="Group_239" data-name="Group 239" transform="translate(20.573 35.176)">
    <path id="Path_161" data-name="Path 161" d="M88.515,199.211l16.357-24.976L90.05,151.347h11.3l9.6,15.378,9.4-15.378h11.2l-14.888,23.246,16.357,24.617H121.36l-10.611-16.553-10.644,16.553Z" transform="translate(-88.515 -151.347)" fill="#da2286"/>
    <path id="Path_162" data-name="Path 162" d="M311.673,199.211h-8.522v-5.093a13.765,13.765,0,0,1-5.011,4.424,12.863,12.863,0,0,1-5.828,1.453,13.206,13.206,0,0,1-10.236-4.816q-4.261-4.816-4.261-13.435,0-8.816,4.146-13.4a13.519,13.519,0,0,1,10.481-4.587,12.986,12.986,0,0,1,10.056,4.832V151.347h9.174v47.864Zm-24.487-18.088q0,5.551,1.535,8.032a6.931,6.931,0,0,0,6.2,3.592,6.753,6.753,0,0,0,5.387-2.693q2.22-2.694,2.22-8.048,0-5.975-2.155-8.6a6.82,6.82,0,0,0-5.518-2.628,6.893,6.893,0,0,0-5.469,2.6Q287.186,175.965,287.186,181.123Z" transform="translate(-233.818 -151.347)" fill="#da2286"/>
  </g>
</svg>
